<?xml version="1.0" encoding="UTF-8" standalone="no"?>
<svg
   width="7"
   height="26"
   viewBox="0 0 7 26"
   version="1.1"
   id="SVGRoot"
   sodipodi:docname="selected_side_right.svg"
   inkscape:version="1.2.2 (b0a8486541, 2022-12-01)"
   xmlns:inkscape="http://www.inkscape.org/namespaces/inkscape"
   xmlns:sodipodi="http://sodipodi.sourceforge.net/DTD/sodipodi-0.dtd"
   xmlns="http://www.w3.org/2000/svg"
   xmlns:svg="http://www.w3.org/2000/svg"
   xmlns:rdf="http://www.w3.org/1999/02/22-rdf-syntax-ns#"
   xmlns:cc="http://creativecommons.org/ns#"
   xmlns:dc="http://purl.org/dc/elements/1.1/">
  <defs
     id="defs1994" />
  <sodipodi:namedview
     id="base"
     pagecolor="#ffffff"
     bordercolor="#666666"
     borderopacity="1.0"
     inkscape:pageopacity="0.0"
     inkscape:pageshadow="2"
     inkscape:zoom="53.498144"
     inkscape:cx="6.7011671"
     inkscape:cy="25.851364"
     inkscape:document-units="px"
     inkscape:current-layer="layer1"
     inkscape:document-rotation="0"
     showgrid="true"
     inkscape:window-width="1850"
     inkscape:window-height="1043"
     inkscape:window-x="2630"
     inkscape:window-y="360"
     inkscape:window-maximized="1"
     inkscape:showpageshadow="2"
     inkscape:pagecheckerboard="0"
     inkscape:deskcolor="#d1d1d1">
    <inkscape:grid
       type="xygrid"
       id="grid2568"
       originx="0"
       originy="0" />
  </sodipodi:namedview>
  <metadata
     id="metadata1997">
    <rdf:RDF>
      <cc:Work
         rdf:about="">
        <dc:format>image/svg+xml</dc:format>
        <dc:type
           rdf:resource="http://purl.org/dc/dcmitype/StillImage" />
      </cc:Work>
    </rdf:RDF>
  </metadata>
  <g
     inkscape:label="Слой 1"
     inkscape:groupmode="layer"
     id="layer1">
    <rect
       style="fill:#6b6968;stroke-width:1.1547"
       id="rect2607"
       width="1"
       height="16"
       x="3"
       y="4" />
    <rect
       style="opacity:0.41;fill:#000000;fill-opacity:1;stroke-width:0.654654"
       id="rect2672"
       width="3"
       height="20"
       x="-3"
       y="0"
       transform="scale(-1,1)" />
    <g
       id="g321">
      <path
         id="path2570-3"
         style="fill:#6b6968"
         d="M 0.0605469,24 A 4,4 0 0 0 4,20 H 3 a 3,3 0 0 1 -3,3 v 1 z" />
      <path
         id="path2680"
         style="opacity:0.41;fill:#000000;fill-opacity:1"
         d="M 3,20 A 3,3 0 0 1 3,20.050781 3,3 0 0 1 0,23 v -3 z"
         inkscape:label="path2680" />
      <path
         id="rect2685-7"
         style="opacity:0.5;fill:#2d2d2d;fill-opacity:1"
         d="M -1.968904e-8,24 A 4,4 0 0 0 4,20.060547 V 24 Z" />
    </g>
    <rect
       style="opacity:0.5;fill:#2d2d2d;fill-opacity:1;stroke-width:0.654654"
       id="rect2672-5"
       width="3"
       height="20"
       x="4"
       y="-24"
       transform="scale(1,-1)" />
    <g
       id="g316">
      <path
         id="path2570"
         style="fill:#6b6968"
         d="M 6.9394531,0 A 4,4 0 0 0 3,4 H 4 A 3,3 0 0 1 7,1 V 0 Z" />
      <path
         id="rect2685"
         style="opacity:0.41;fill:#000000;fill-opacity:1"
         d="M 7,2.6251051e-8 A 4,4 0 0 0 3,3.9394531 V 2.6251051e-8 Z" />
      <path
         id="path2680-3"
         style="opacity:0.5;fill:#2d2d2d;fill-opacity:1"
         d="M 4,4 A 3,3 0 0 1 4,3.949219 3,3 0 0 1 7,1 v 3 z" />
    </g>
    <rect
       style="opacity:0.5;fill:#2d2d2d;fill-opacity:1;stroke-width:0.316227"
       id="rect2672-5-3"
       width="7"
       height="2"
       x="0"
       y="-26"
       transform="scale(1,-1)" />
  </g>
</svg>
